<?xml version="1.0" standalone="no"?><!DOCTYPE svg PUBLIC "-//W3C//DTD SVG 1.1//EN" "http://www.w3.org/Graphics/SVG/1.1/DTD/svg11.dtd"><svg t="1615599797921" class="icon" viewBox="0 0 1024 1024" version="1.1" xmlns="http://www.w3.org/2000/svg" p-id="2578" xmlns:xlink="http://www.w3.org/1999/xlink" width="20" height="20"><defs><style type="text/css"></style></defs><path d="M517.12 248.32c118.477 0 215.04 96.563 215.04 215.04S635.597 678.4 517.12 678.4s-215.04-96.563-215.04-215.04 96.563-215.04 215.04-215.04z m0 76.8c-76.083 0-138.24 62.157-138.24 138.24 0 76.083 62.157 138.24 138.24 138.24 76.083 0 138.24-62.157 138.24-138.24 0-76.083-62.157-138.24-138.24-138.24z m0-261.12C740.122 64 921.6 244.582 921.6 465.92c0 178.176-115.098 331.187-312.32 488.96-28.083 21.069-58.624 33.28-89.6 33.28h-2.56c-30.976 0-61.517-12.211-90.547-34.022C230.298 797.108 115.2 644.096 115.2 465.92 115.2 245.043 296.243 64 517.12 64z m0 76.8C338.637 140.8 192 287.437 192 465.92c0 147.558 103.168 284.749 281.6 427.52 15.795 11.853 30.976 17.92 43.52 17.92h2.56c12.544 0 27.725-6.067 42.573-17.178C741.632 750.67 844.8 613.478 844.8 465.92c0-178.816-146.995-325.12-327.68-325.12z" p-id="2579" fill="#707070"></path></svg>